<svg width="216" height="216" viewBox="0 0 216 216" fill="none" xmlns="http://www.w3.org/2000/svg">
<circle cx="108" cy="108" r="108" fill="#3620AB"/>
<path d="M63.448 153.896C56.8773 153.896 50.9893 152.829 45.784 150.696C40.5787 148.563 36.3973 145.405 33.24 141.224C30.168 137.043 28.5467 132.008 28.376 126.12H51.672C52.0133 129.448 53.1653 132.008 55.128 133.8C57.0907 135.507 59.6507 136.36 62.808 136.36C66.0507 136.36 68.6107 135.635 70.488 134.184C72.3653 132.648 73.304 130.557 73.304 127.912C73.304 125.693 72.536 123.859 71 122.408C69.5493 120.957 67.7147 119.763 65.496 118.824C63.3627 117.885 60.2907 116.819 56.28 115.624C50.4773 113.832 45.7413 112.04 42.072 110.248C38.4027 108.456 35.2453 105.811 32.6 102.312C29.9547 98.8133 28.632 94.248 28.632 88.616C28.632 80.2533 31.6613 73.7253 37.72 69.032C43.7787 64.2533 51.672 61.864 61.4 61.864C71.2987 61.864 79.2773 64.2533 85.336 69.032C91.3947 73.7253 94.6373 80.296 95.064 88.744H71.384C71.2133 85.8427 70.1467 83.5813 68.184 81.96C66.2213 80.2533 63.704 79.4 60.632 79.4C57.9867 79.4 55.8533 80.1253 54.232 81.576C52.6107 82.9413 51.8 84.9467 51.8 87.592C51.8 90.4933 53.1653 92.7547 55.896 94.376C58.6267 95.9973 62.8933 97.7467 68.696 99.624C74.4987 101.587 79.192 103.464 82.776 105.256C86.4453 107.048 89.6027 109.651 92.248 113.064C94.8933 116.477 96.216 120.872 96.216 126.248C96.216 131.368 94.8933 136.019 92.248 140.2C89.688 144.381 85.9333 147.709 80.984 150.184C76.0347 152.659 70.1893 153.896 63.448 153.896ZM105.974 107.944C105.974 99.0693 107.894 91.176 111.734 84.264C115.574 77.2667 120.907 71.848 127.734 68.008C134.646 64.0827 142.454 62.12 151.158 62.12C161.825 62.12 170.955 64.936 178.55 70.568C186.145 76.2 191.222 83.88 193.782 93.608H169.718C167.926 89.8533 165.366 86.9947 162.038 85.032C158.795 83.0693 155.083 82.088 150.902 82.088C144.161 82.088 138.699 84.4347 134.518 89.128C130.337 93.8213 128.246 100.093 128.246 107.944C128.246 115.795 130.337 122.067 134.518 126.76C138.699 131.453 144.161 133.8 150.902 133.8C155.083 133.8 158.795 132.819 162.038 130.856C165.366 128.893 167.926 126.035 169.718 122.28H193.782C191.222 132.008 186.145 139.688 178.55 145.32C170.955 150.867 161.825 153.64 151.158 153.64C142.454 153.64 134.646 151.72 127.734 147.88C120.907 143.955 115.574 138.536 111.734 131.624C107.894 124.712 105.974 116.819 105.974 107.944Z" fill="white"/>
</svg>
