<?xml version="1.0" standalone="no"?>
<!DOCTYPE svg PUBLIC "-//W3C//DTD SVG 20010904//EN"
 "http://www.w3.org/TR/2001/REC-SVG-20010904/DTD/svg10.dtd">
<svg version="1.0" xmlns="http://www.w3.org/2000/svg"
 width="700.000000pt" height="700.000000pt" viewBox="0 0 700.000000 700.000000"
 preserveAspectRatio="xMidYMid meet">
<metadata>
Created by potrace 1.14, written by Peter Selinger 2001-2017
</metadata>
<g transform="translate(0.000000,700.000000) scale(0.100000,-0.100000)"
fill="#000000" stroke="none">
<path d="M3280 6994 c-19 -2 -84 -9 -145 -14 -578 -56 -1180 -283 -1660 -625
-237 -169 -531 -446 -709 -670 -416 -521 -673 -1147 -748 -1820 -17 -154 -17
-585 0 -730 69 -588 254 -1099 567 -1570 126 -189 242 -332 410 -504 580 -595
1295 -943 2140 -1043 145 -17 576 -17 730 0 822 91 1556 447 2131 1034 203
206 348 390 487 618 274 449 432 915 499 1465 16 135 16 591 0 730 -100 846
-447 1557 -1043 2141 -555 542 -1249 874 -2029 970 -117 15 -553 27 -630 18z
m-1063 -2015 c362 -44 654 -234 784 -512 34 -74 64 -187 74 -280 l7 -67 -383
2 -382 3 -13 57 c-35 153 -157 241 -334 241 -67 1 -96 -4 -135 -22 -110 -49
-162 -137 -152 -257 12 -155 98 -216 516 -363 452 -159 594 -232 727 -373 112
-118 164 -232 185 -401 39 -319 -111 -637 -385 -815 -243 -158 -578 -214 -941
-157 -498 78 -818 379 -861 808 l-7 67 380 0 380 0 7 -48 c14 -110 106 -223
209 -259 61 -21 217 -24 284 -5 120 35 196 134 196 256 0 119 -63 200 -214
275 -42 22 -182 74 -311 116 -388 129 -524 189 -645 287 -177 144 -260 311
-270 545 -12 257 49 441 199 599 241 254 621 360 1085 303z m2831 1 c370 -33
658 -165 897 -411 152 -157 257 -337 319 -546 l15 -53 -389 0 -389 0 -38 63
c-123 203 -360 319 -618 304 -125 -8 -198 -28 -298 -79 -191 -99 -330 -303
-372 -543 -17 -101 -20 -310 -4 -405 16 -100 66 -238 114 -315 40 -65 126
-159 185 -203 205 -152 541 -169 769 -40 78 45 181 146 225 222 l39 66 389 0
388 0 -6 -27 c-28 -114 -116 -304 -197 -423 -67 -97 -232 -261 -327 -325 -41
-27 -113 -69 -160 -93 -338 -170 -819 -198 -1205 -71 -414 137 -739 467 -873
889 -102 319 -100 728 3 1037 215 640 819 1016 1533 953z"/>
</g>
</svg>
